<?xml version="1.0" standalone="no"?>
<!DOCTYPE svg PUBLIC "-//W3C//DTD SVG 20010904//EN"
 "http://www.w3.org/TR/2001/REC-SVG-20010904/DTD/svg10.dtd">
<svg version="1.0" xmlns="http://www.w3.org/2000/svg"
 width="360.000000pt" height="120.000000pt" viewBox="0 0 360.000000 120.000000"
 preserveAspectRatio="xMidYMid meet">

<g transform="translate(0.000000,120.000000) scale(0.100000,-0.100000)"
fill="#1bf440" stroke="none">
<path d="M123 800 c-31 -18 -64 -48 -80 -72 -25 -37 -28 -51 -28 -123 0 -72 3
-86 28 -123 41 -63 116 -102 195 -102 106 0 174 42 218 135 23 48 33 125 16
125 -17 0 -52 -42 -52 -63 0 -41 -43 -99 -90 -125 -108 -57 -248 6 -267 121
-13 80 32 163 104 193 42 18 117 18 151 0 25 -13 30 -12 51 3 l23 18 -46 21
c-70 34 -156 30 -223 -8z"/>
<path d="M686 735 c-41 -14 -52 -26 -62 -63 -11 -39 20 -69 88 -90 50 -14 64
-23 66 -40 4 -29 -37 -39 -97 -23 -35 9 -46 9 -52 -1 -14 -21 -5 -32 37 -46
80 -28 166 6 172 67 4 42 -19 68 -72 81 -63 16 -86 28 -86 44 0 23 38 39 79
33 23 -4 43 -1 54 8 18 13 18 14 0 23 -35 18 -88 21 -127 7z"/>
<path d="M332 675 l-92 -66 -37 26 c-48 32 -53 31 -53 -4 0 -24 8 -34 45 -56
25 -14 51 -23 58 -19 15 9 179 124 190 135 10 8 0 49 -12 49 -4 0 -49 -29 -99
-65z"/>
<path d="M900 605 l0 -135 103 0 c90 0 106 3 125 20 28 26 29 73 2 100 -19 19
-19 22 -4 45 10 15 14 34 10 50 -10 39 -54 55 -151 55 l-85 0 0 -135z m164 82
c10 -7 17 -22 14 -33 -3 -16 -13 -20 -61 -22 l-57 -3 0 36 c0 35 0 35 43 35
24 0 51 -6 61 -13z m24 -136 c5 -31 -12 -41 -75 -41 l-53 0 0 35 0 36 63 -3
c57 -3 62 -5 65 -27z"/>
<path d="M1210 605 l0 -135 110 0 c103 0 110 1 110 20 0 18 -7 20 -80 20 l-80
0 0 35 0 35 65 0 c63 0 65 1 65 25 0 24 -2 25 -65 25 l-65 0 0 35 0 35 48 0
c30 0 58 7 77 20 l30 20 -107 0 -108 0 0 -135z"/>
<path d="M1480 605 l0 -135 30 0 c28 0 30 3 30 35 0 33 2 35 35 35 29 0 39 -6
57 -35 19 -28 29 -35 56 -35 35 0 35 2 -1 52 l-20 27 27 31 c28 33 34 77 15
112 -17 31 -71 48 -154 48 l-75 0 0 -135z m158 79 c28 -20 30 -69 3 -84 -11
-5 -38 -10 -60 -10 l-41 0 0 48 c0 27 3 52 7 55 12 13 68 7 91 -9z"/>
<path d="M1860 605 l0 -135 78 0 c119 0 172 44 172 144 0 85 -61 126 -187 126
l-63 0 0 -135z m149 84 c17 -6 36 -19 41 -29 11 -21 13 -80 4 -105 -9 -24 -58
-45 -104 -45 l-40 0 0 95 0 95 34 0 c18 0 47 -5 65 -11z"/>
<path d="M2170 605 l0 -135 100 0 c93 0 100 1 100 20 0 18 -7 20 -81 20 l-80
0 3 38 3 37 68 3 c59 3 67 5 67 22 0 18 -7 20 -69 20 l-69 0 1 33 2 32 73 3
c64 3 72 5 72 22 0 18 -7 20 -95 20 l-95 0 0 -135z"/>
<path d="M2415 703 c9 -21 35 -82 57 -135 37 -89 43 -98 67 -98 24 0 30 10 79
128 29 70 52 131 52 135 0 5 -10 7 -22 5 -18 -2 -30 -23 -63 -105 -22 -57 -42
-103 -45 -103 -3 0 -24 46 -47 103 -36 90 -44 102 -67 105 l-27 3 16 -38z"/>
<path d="M2720 605 l0 -135 25 0 25 0 0 135 0 135 -25 0 -25 0 0 -135z"/>
<path d="M2889 717 c-42 -29 -59 -60 -59 -115 0 -78 47 -127 132 -138 54 -6
111 20 116 54 4 25 -5 27 -32 7 -11 -9 -41 -15 -68 -15 -39 0 -54 5 -73 25
-59 58 -12 165 72 165 22 0 48 -7 59 -15 27 -20 34 -19 34 10 0 32 -26 45 -93
45 -40 0 -63 -6 -88 -23z"/>
<path d="M3130 605 l0 -135 100 0 c93 0 100 1 100 20 0 18 -7 20 -75 20 l-75
0 0 40 0 40 65 0 c58 0 65 2 65 20 0 18 -7 20 -65 20 l-65 0 0 35 0 35 75 0
c68 0 75 2 75 20 0 19 -7 20 -100 20 l-100 0 0 -135z"/>
<path d="M3418 724 c-32 -17 -43 -49 -29 -86 7 -18 24 -31 58 -43 93 -33 95
-34 91 -58 -4 -32 -89 -37 -130 -7 l-28 21 0 -25 c0 -36 39 -59 105 -60 67 -1
105 28 105 80 0 41 -32 68 -101 84 -28 7 -53 19 -56 26 -16 43 74 60 121 23
l26 -20 0 31 c0 24 -6 33 -26 40 -37 14 -105 11 -136 -6z"/>
</g>
</svg>
