<?xml version="1.0" standalone="no"?>
<!DOCTYPE svg PUBLIC "-//W3C//DTD SVG 20010904//EN"
 "http://www.w3.org/TR/2001/REC-SVG-20010904/DTD/svg10.dtd">
<svg version="1.0" xmlns="http://www.w3.org/2000/svg"
 width="360.000000pt" height="78.000000pt" viewBox="0 0 360.000000 78.000000"
 preserveAspectRatio="xMidYMid meet">

<g transform="translate(0.000000,78.000000) scale(0.100000,-0.100000)"
fill="#000000" stroke="none">
<path d="M489 733 c-25 -27 -109 -157 -109 -168 0 -3 314 -4 698 -3 l697 3 3
98 3 98 -370 -3 -369 -3 -44 -30 c-25 -18 -55 -52 -70 -80 l-28 -50 0 83 0 82
-193 0 -193 0 -25 -27z"/>
<path d="M1810 660 l0 -100 100 0 100 0 0 100 0 100 -100 0 -100 0 0 -100z"/>
<path d="M2462 663 l3 -98 558 -3 557 -2 0 100 0 101 -389 -3 -389 -3 -44 -30
c-28 -20 -52 -49 -70 -84 l-28 -55 0 87 0 87 -100 0 -101 0 3 -97z"/>
<path d="M200 289 c-91 -144 -167 -266 -168 -271 -2 -5 48 -7 113 -6 l117 3
164 255 163 255 -30 6 c-17 4 -67 10 -112 13 l-82 6 -165 -261z"/>
<path d="M1810 424 l0 -128 -29 47 c-17 25 -48 58 -71 73 -39 26 -51 28 -373
55 -182 16 -353 28 -380 29 l-47 0 15 -37 c23 -54 72 -100 124 -117 25 -8 161
-25 301 -36 140 -12 261 -26 267 -32 16 -13 17 -40 1 -56 -9 -9 -104 -12 -365
-12 l-353 0 0 144 c0 80 -3 147 -7 149 -5 3 -50 8 -100 11 l-93 8 0 -257 0
-256 478 3 c472 3 477 3 519 25 47 25 88 74 98 115 4 16 10 28 14 27 3 0 17
-23 31 -52 19 -38 38 -59 75 -82 l48 -30 251 -3 c169 -2 264 0 291 8 64 19
115 57 136 103 l19 42 0 -78 0 -78 383 3 384 3 48 30 c151 94 134 322 -30 391
-32 13 -751 61 -762 51 -12 -12 21 -69 59 -101 21 -19 58 -39 81 -45 23 -6
157 -20 297 -32 140 -11 261 -25 267 -31 19 -16 16 -46 -6 -58 -13 -6 -148
-10 -370 -10 l-351 0 0 139 c0 161 9 151 -122 151 l-78 0 0 -128 c0 -112 -2
-131 -18 -145 -16 -15 -46 -17 -205 -17 -242 0 -227 -12 -227 185 l0 145 -39
0 c-21 0 -66 3 -100 6 l-61 7 0 -129z"/>
</g>
</svg>
