<?xml version="1.0" standalone="no"?>
<!DOCTYPE svg PUBLIC "-//W3C//DTD SVG 20010904//EN"
 "http://www.w3.org/TR/2001/REC-SVG-20010904/DTD/svg10.dtd">
<svg version="1.0" xmlns="http://www.w3.org/2000/svg"
 width="360.000000pt" height="120.000000pt" viewBox="0 0 360.000000 120.000000"
 preserveAspectRatio="xMidYMid meet">

<g transform="translate(0.000000,120.000000) scale(0.100000,-0.100000)"
fill="#c50af4" stroke="none">
<path d="M10 838 c0 -391 6 -445 61 -556 17 -35 57 -92 90 -126 62 -67 158
-146 177 -146 10 0 222 304 222 319 0 4 -18 22 -39 39 -48 38 -89 120 -98 190
l-6 52 232 0 231 0 0 290 0 290 -435 0 -435 0 0 -352z"/>
<path d="M1156 435 c-40 -40 -1 -99 50 -76 24 11 32 44 16 67 -13 21 -49 25
-66 9z"/>
<path d="M1601 427 c-68 -24 -76 -48 -79 -238 l-4 -169 46 0 46 0 0 115 0 115
41 0 c39 0 40 1 37 33 -3 29 -6 32 -40 35 -61 5 -43 52 19 52 31 0 33 2 33 35
0 33 -2 35 -32 34 -18 0 -48 -5 -67 -12z"/>
<path d="M1304 395 c-9 -21 1 -306 11 -328 11 -26 58 -47 105 -47 39 0 40 1
40 35 0 32 -3 35 -29 35 -35 0 -41 13 -41 96 l0 64 40 0 c39 0 40 1 40 35 0
34 -1 35 -40 35 l-40 0 0 45 0 45 -40 0 c-27 0 -43 -5 -46 -15z"/>
<path d="M2260 250 c0 -95 4 -169 11 -183 14 -31 48 -47 99 -47 39 0 40 1 40
35 0 30 -3 35 -23 35 -37 0 -47 19 -47 92 l0 68 40 0 c39 0 40 1 40 35 0 34
-1 35 -40 35 l-40 0 0 45 0 45 -40 0 -40 0 0 -160z"/>
<path d="M790 210 l0 -190 45 0 45 0 0 92 0 92 56 -79 c30 -44 59 -86 63 -93
5 -9 24 -12 58 -10 l50 3 -69 98 -69 99 42 56 c24 32 54 72 67 90 l24 32 -45
0 c-46 0 -46 0 -109 -82 l-63 -83 -3 83 -3 82 -44 0 -45 0 0 -190z"/>
<path d="M1805 323 c-64 -17 -95 -66 -95 -155 0 -105 49 -158 147 -158 60 0
109 29 129 75 19 46 18 129 -3 172 -26 55 -105 84 -178 66z m90 -83 c23 -25
30 -98 13 -130 -11 -20 -21 -25 -53 -25 -50 0 -68 28 -62 99 6 72 60 102 102
56z"/>
<path d="M1140 170 l0 -150 45 0 45 0 0 150 0 150 -45 0 -45 0 0 -150z"/>
<path d="M2110 302 c-51 -25 -60 -52 -60 -174 l0 -108 40 0 40 0 0 95 c0 105
14 135 65 135 22 0 25 4 25 35 0 34 -1 35 -37 35 -21 0 -54 -8 -73 -18z"/>
</g>
</svg>
